<svg width="148" height="48" viewBox="0 0 148 48" fill="none" xmlns="http://www.w3.org/2000/svg">
<path d="M41.4574 13.202L48.972 20.717L35.1553 34.5337L46.7711 34.534L46.7709 45.1611H22.3273L18.5695 36.0899L41.4574 13.202Z" fill="#04D8C1"/>
<path d="M32.6435 6.58965L36.4013 15.6609L13.5134 38.5488L5.99875 31.0337L19.8155 17.217H8.19991L8.19968 6.58989L32.6435 6.58965Z" fill="#04D8C1"/>
<path fill-rule="evenodd" clip-rule="evenodd" d="M118.515 15.5405H123.956V19.885H118.515V28.6954C118.515 29.6698 118.718 30.3466 119.124 30.7255C119.557 31.0774 120.288 31.2533 121.317 31.2533H123.451C123.379 30.8735 123.343 30.481 123.343 30.0759C123.343 28.2083 124.074 26.6924 125.535 25.5285C126.997 24.3646 129.189 23.7826 132.113 23.7826H137.229V23.2955C137.229 21.915 136.836 20.9 136.051 20.2504C135.266 19.6008 134.292 19.2759 133.128 19.2759C132.072 19.2759 131.152 19.5332 130.367 20.0474C129.582 20.5346 129.095 21.2654 128.905 22.2398H123.83C123.965 20.7782 124.453 19.506 125.292 18.4233C126.158 17.3406 127.268 16.515 128.621 15.9466C129.974 15.3511 131.49 15.0534 133.168 15.0534C136.037 15.0534 138.298 15.7707 139.949 17.2053C141.6 18.6399 142.426 20.6699 142.426 23.2955V35.6789H138L137.513 32.4308C136.917 33.5135 136.078 34.4067 134.995 35.1105C133.94 35.8142 132.573 36.1661 130.895 36.1661C129.162 36.1661 127.741 35.8954 126.631 35.3541C125.522 34.7856 124.696 34.0413 124.155 33.121C124.035 32.9166 123.928 32.7075 123.834 32.4937V35.6789H120.302C118.191 35.6789 116.499 35.1647 115.227 34.1361C113.955 33.1076 113.318 31.2805 113.318 28.6549V19.885H110.169C110.607 21.1285 110.826 22.6037 110.826 24.3106V35.6789H105.629V24.7978C105.629 23.0655 105.277 21.7391 104.573 20.8188C103.869 19.8985 102.773 19.4383 101.284 19.4383C99.8225 19.4383 98.6181 19.9527 97.6707 20.9813C96.7504 22.0098 96.2902 23.4443 96.2902 25.2849V35.6789H91.0932V17.9691L79.3723 44.6113H73.8505L78.5197 34.3391H77.3016L71.2287 19.7703L60.837 31.3751H71.4746V35.6789H55.0715V31.4969L65.3438 19.8443H55.1933V15.5405H75.1092L80.7527 29.7105L86.64 15.5405H95.6812L96.0871 18.9512C96.7097 17.7602 97.6029 16.8127 98.7668 16.109C99.9578 15.4052 101.352 15.0534 102.949 15.0534C105.439 15.0534 107.374 15.8383 108.755 17.4082C109.196 17.9102 109.567 18.487 109.867 19.1384V15.5405H113.318L113.927 10.1406H118.515V15.5405ZM132.681 27.0308C131.301 27.0308 130.313 27.2879 129.717 27.8022C129.122 28.2894 128.824 28.8986 128.824 29.6294C128.824 30.4143 129.122 31.0234 129.717 31.4564C130.313 31.8895 131.098 32.106 132.072 32.106C133.561 32.106 134.711 31.6188 135.523 30.6444C136.362 29.6699 136.89 28.4654 137.107 27.0308H132.681Z" fill="#F0FFF9"/>
</svg>
